<?xml version="1.0" encoding="UTF-8" standalone="no"?>
<!-- Created with Inkscape (http://www.inkscape.org/) -->

<svg
   width="180"
   height="180"
   viewBox="0 0 47.624999 47.625"
   version="1.1"
   id="svg1"
   xml:space="preserve"
   inkscape:version="1.4 (86a8ad7, 2024-10-11)"
   sodipodi:docname="facebook.svg"
   xmlns:inkscape="http://www.inkscape.org/namespaces/inkscape"
   xmlns:sodipodi="http://sodipodi.sourceforge.net/DTD/sodipodi-0.dtd"
   xmlns="http://www.w3.org/2000/svg"
   xmlns:svg="http://www.w3.org/2000/svg"><sodipodi:namedview
     id="namedview1"
     pagecolor="#ffffff"
     bordercolor="#000000"
     borderopacity="0.25"
     inkscape:showpageshadow="2"
     inkscape:pageopacity="0.0"
     inkscape:pagecheckerboard="0"
     inkscape:deskcolor="#d1d1d1"
     inkscape:document-units="mm"
     inkscape:zoom="1.4378367"
     inkscape:cx="121.71062"
     inkscape:cy="192.30278"
     inkscape:window-width="1920"
     inkscape:window-height="1009"
     inkscape:window-x="-8"
     inkscape:window-y="-8"
     inkscape:window-maximized="1"
     inkscape:current-layer="layer1" /><defs
     id="defs1" /><g
     inkscape:label="Layer 1"
     inkscape:groupmode="layer"
     id="layer1"><path
       style="fill:#ffffff;stroke:none;stroke-width:1.13325;fill-opacity:1"
       d="M 22.364985,1.4895692 C 20.479465,1.7367729 18.661852,1.9288698 16.825057,2.4813851 13.069688,3.6110154 9.6447733,5.8880153 6.9841698,8.7402099 5.1856532,10.668232 3.7583112,12.981526 2.7563506,15.413469 -2.1304315,27.274591 4.3721697,41.512198 16.737122,45.3531 c 3.181366,0.988219 6.549533,1.288757 9.848761,0.855565 C 37.32162,44.799052 45.632211,35.567805 46.104074,24.808716 46.576828,14.029355 38.770903,4.0475687 28.16872,1.9264317 26.321694,1.5569051 24.248398,1.2426417 22.364985,1.4895692 m 7.210701,10.1482388 v 4.565915 c -0.922107,0 -2.958267,-0.379781 -3.663092,0.298039 -0.744921,0.716378 -0.381935,2.619478 -0.381935,3.565428 h 4.132963 l -0.439678,4.653721 h -3.693285 v 13.083103 h -3.869156 l -1.441842,-0.09025 -0.140995,-0.875621 V 34.467376 24.720904 H 17.52854 v -4.653721 h 2.550126 c 0,-1.390084 -0.12096,-2.841625 0.128647,-4.214692 0.09828,-0.54071 0.270426,-1.08993 0.519741,-1.580508 1.665127,-3.27647 5.789728,-2.634182 8.848632,-2.634182 z"
       id="path1" /></g></svg>
