<?xml version="1.0" encoding="UTF-8" standalone="no"?>
<!-- Created with Inkscape (http://www.inkscape.org/) -->

<svg
   width="180"
   height="180"
   viewBox="0 0 47.625 47.625"
   version="1.1"
   id="svg1"
   xml:space="preserve"
   inkscape:version="1.4 (86a8ad7, 2024-10-11)"
   sodipodi:docname="twiter.svg"
   xmlns:inkscape="http://www.inkscape.org/namespaces/inkscape"
   xmlns:sodipodi="http://sodipodi.sourceforge.net/DTD/sodipodi-0.dtd"
   xmlns="http://www.w3.org/2000/svg"
   xmlns:svg="http://www.w3.org/2000/svg"><sodipodi:namedview
     id="namedview1"
     pagecolor="#ffffff"
     bordercolor="#000000"
     borderopacity="0.25"
     inkscape:showpageshadow="2"
     inkscape:pageopacity="0.0"
     inkscape:pagecheckerboard="0"
     inkscape:deskcolor="#d1d1d1"
     inkscape:document-units="mm"
     inkscape:zoom="2.8756734"
     inkscape:cx="81.0245"
     inkscape:cy="131.62134"
     inkscape:window-width="1920"
     inkscape:window-height="1009"
     inkscape:window-x="-8"
     inkscape:window-y="-8"
     inkscape:window-maximized="1"
     inkscape:current-layer="layer1" /><defs
     id="defs1" /><g
     inkscape:label="Layer 1"
     inkscape:groupmode="layer"
     id="layer1"><path
       style="fill:#ffffff;stroke:none;fill-opacity:1"
       d="M 22.590931,1.5994162 C 20.956889,1.8139661 19.362928,1.9319967 17.756947,2.3664261 13.614573,3.4869699 9.8364823,5.853912 6.9613194,9.0328203 5.1431263,11.043096 3.6823336,13.436012 2.7320579,15.97618 c -4.5764505,12.233236 2.280351,26.415459 15.1127801,29.805095 2.901008,0.766288 5.904856,0.959316 8.876953,0.579969 C 38.037269,44.916979 46.728865,34.573539 46.230049,23.183211 45.796747,13.288791 38.809809,4.6398262 29.182728,2.2324202 27.11967,1.7165188 24.717974,1.3201393 22.590931,1.5994162 M 33.137806,17.38243 c 0.325111,-0.0923 1.541356,-0.716547 1.74364,-0.322268 0.143667,0.280028 -0.220368,0.65421 -0.377875,0.849611 -0.494267,0.613177 -1.446883,1.201201 -1.726685,1.933594 -0.366387,0.959029 -0.174247,2.30468 -0.419924,3.339844 -0.635748,2.678717 -2.09366,5.1736 -4.141031,7.016262 -3.10599,2.79543 -7.560814,3.776416 -11.601562,2.95044 -1.122798,-0.229514 -2.228614,-0.6293 -3.251953,-1.142648 -0.280508,-0.140714 -0.919206,-0.398753 -0.812852,-0.813326 0.115209,-0.449087 1.24784,-0.278547 1.603867,-0.327012 1.470733,-0.200203 3.043932,-0.565976 4.21875,-1.531372 -1.183872,-0.0541 -2.317541,-0.851336 -3.030667,-1.757813 -0.221618,-0.281707 -1.049962,-1.413427 -0.607367,-1.754081 0.212228,-0.163347 0.664806,-0.01441 0.913425,-0.0037 v -0.08789 c -1.462493,-0.554493 -3.32402,-3.019183 -2.548828,-4.658203 l 1.230469,0.439453 c -0.998235,-1.258726 -1.579801,-2.774555 -1.22918,-4.394531 0.07534,-0.348103 0.333636,-1.650001 0.866495,-1.515979 0.670996,0.168767 1.405671,1.382987 1.944716,1.826782 1.437439,1.183445 3.122897,2.037253 4.921875,2.511868 0.521389,0.137554 1.300085,0.413615 1.840549,0.305584 0.520023,-0.103947 0.330809,-1.225386 0.395304,-1.634115 0.191613,-1.21433 0.889272,-2.321792 1.895006,-3.026054 1.345498,-0.94218 3.224758,-1.143708 4.746094,-0.524292 0.567006,0.230858 1.085004,0.822709 1.669922,0.948215 0.782328,0.167866 3.646168,-1.886028 2.701824,0.0533 -0.103348,0.212235 -0.214236,0.42052 -0.348172,0.615235 -0.175634,0.255333 -0.382277,0.479828 -0.59584,0.703125 z"
       id="path1" /></g></svg>
