<?xml version="1.0" encoding="UTF-8" standalone="no"?>
<!-- Created with Inkscape (http://www.inkscape.org/) -->

<svg
   width="180"
   height="180"
   viewBox="0 0 47.624999 47.625"
   version="1.1"
   id="svg1"
   xml:space="preserve"
   inkscape:version="1.4 (86a8ad7, 2024-10-11)"
   sodipodi:docname="youtube.svg"
   xmlns:inkscape="http://www.inkscape.org/namespaces/inkscape"
   xmlns:sodipodi="http://sodipodi.sourceforge.net/DTD/sodipodi-0.dtd"
   xmlns="http://www.w3.org/2000/svg"
   xmlns:svg="http://www.w3.org/2000/svg"><sodipodi:namedview
     id="namedview1"
     pagecolor="#ffffff"
     bordercolor="#000000"
     borderopacity="0.25"
     inkscape:showpageshadow="2"
     inkscape:pageopacity="0.0"
     inkscape:pagecheckerboard="0"
     inkscape:deskcolor="#d1d1d1"
     inkscape:document-units="mm"
     inkscape:zoom="2.8756734"
     inkscape:cx="92.847818"
     inkscape:cy="66.245353"
     inkscape:window-width="1920"
     inkscape:window-height="1009"
     inkscape:window-x="-8"
     inkscape:window-y="-8"
     inkscape:window-maximized="1"
     inkscape:current-layer="layer1" /><defs
     id="defs1" /><g
     inkscape:label="Layer 1"
     inkscape:groupmode="layer"
     id="layer1"><path
       style="fill:#ffffff;stroke:none;stroke-width:0.620015;fill-opacity:1"
       d="M 22.456419,1.2398394 C 20.820178,1.4541864 19.224073,1.5721055 17.615931,2.0061245 13.467983,3.125608 9.6848093,5.4903114 6.8057777,8.666213 4.9851377,10.674587 3.5223805,13.065239 2.5708256,15.603005 -2.0117818,27.824671 4.854245,41.993479 17.70394,45.37991 c 2.904911,0.765562 5.912799,0.958407 8.888897,0.579419 C 37.92354,44.51643 46.626828,34.182773 46.127344,22.803219 45.693457,12.918159 38.697117,4.277374 29.057084,1.8722454 26.991251,1.3568314 24.586324,0.9608274 22.456419,1.2398394 m 0.176023,14.2126186 c 0.913736,-0.107564 1.819389,0.05161 2.728275,0.0624 2.627747,0.03119 6.914627,-0.404633 8.643407,2.01991 0.742409,1.041198 0.696531,2.809307 0.78142,4.039145 0.1354,1.961751 0.118733,3.931907 -0.160067,5.883102 -0.119089,0.833469 -0.189311,1.752639 -0.695989,2.458609 -0.767075,1.068782 -2.036746,1.491932 -3.288246,1.643275 -3.74298,0.452631 -7.512105,0.368342 -11.265137,0.20414 -1.711504,-0.07488 -3.832674,0.0031 -5.280534,-1.05078 -1.145678,-0.833896 -1.332338,-1.941934 -1.519987,-3.255244 -0.354397,-2.480363 -0.354397,-5.071082 0,-7.551445 0.185857,-1.300785 0.371966,-2.447086 1.519987,-3.267442 2.281677,-1.63045 5.910123,-0.876456 8.536862,-1.185672 m -1.760177,4.014077 v 8.429519 l 2.552257,-1.432901 4.400445,-2.694052 v -0.175613 l -4.400445,-2.694051 z"
       id="path1" /></g></svg>
